<svg width="14" height="12" viewBox="0 0 14 12" fill="none" xmlns="http://www.w3.org/2000/svg">
<path d="M7.7537 11.824C7.69947 11.7683 7.65644 11.7022 7.62709 11.6293C7.59774 11.5565 7.58263 11.4784 7.58263 11.3996C7.58263 11.3207 7.59774 11.2427 7.62709 11.1698C7.65645 11.097 7.69947 11.0308 7.7537 10.9751L12.0083 6.59989L0.583316 6.59989C0.428611 6.59989 0.280242 6.53668 0.17085 6.42417C0.0614564 6.31165 6.84454e-07 6.15905 6.91409e-07 5.99993C6.98364e-07 5.84081 0.0614564 5.68821 0.17085 5.5757C0.280242 5.46318 0.428611 5.39997 0.583316 5.39997L12.0083 5.39997L7.7537 1.02476C7.64425 0.912188 7.58276 0.759501 7.58276 0.600293C7.58276 0.441085 7.64425 0.288398 7.7537 0.175822C7.86316 0.0632447 8.01161 -2.60575e-07 8.1664 -2.54995e-07C8.32119 -2.49415e-07 8.46964 0.0632447 8.57909 0.175822L13.8289 5.57546C13.8832 5.63118 13.9262 5.69735 13.9555 5.77018C13.9849 5.84302 14 5.92109 14 5.99993C14 6.07878 13.9849 6.15685 13.9555 6.22968C13.9262 6.30251 13.8832 6.36868 13.8289 6.4244L8.57909 11.824C8.52492 11.8798 8.46059 11.9241 8.38977 11.9543C8.31896 11.9845 8.24306 12 8.1664 12C8.08974 12 8.01384 11.9845 7.94302 11.9543C7.87221 11.9241 7.80788 11.8798 7.7537 11.824Z" fill="#006D77"/>
</svg>
